<?xml version="1.0" encoding="utf-8"?>
<!-- Svg Vector Icons : http://www.onlinewebfonts.com/icon -->
<!DOCTYPE svg PUBLIC "-//W3C//DTD SVG 1.1//EN" "http://www.w3.org/Graphics/SVG/1.1/DTD/svg11.dtd">
<svg version="1.1" xmlns="http://www.w3.org/2000/svg" xmlns:xlink="http://www.w3.org/1999/xlink" x="0px" y="0px" viewBox="0 0 1000 1000" enable-background="new 0 0 1000 1000" xml:space="preserve">
<metadata> Svg Vector Icons : http://www.onlinewebfonts.com/icon </metadata>
<g><g transform="translate(0.000000,512.000000) scale(0.100000,-0.100000)"><path d="M4698.2,5010.3c-1180.2-82.4-2239.7-547.9-3080.8-1356.5C1019.6,3080.9,594.3,2400.8,343.3,1621C276.3,1414,192,1057.7,165.1,877.6l-13.4-93.9l113,13.4c170.5,19.2,471.3,82.4,707,149.5c1806.7,502,3249.4,1915.9,3791.6,3713.1c36.4,120.7,70.9,252.9,78.6,293.1c11.5,61.3,9.6,70.9-21.1,67.1C4799.8,5017.9,4746.1,5014.1,4698.2,5010.3z"/><path d="M5447.4,4818.7C5075.7,3251.4,4027.7,1827.9,2634.8,998.3C1897.1,557.6,1102,279.8,278.2,174.4l-178.2-23V34.6c0-63.2,9.6-210.7,19.2-327.6C259-1808.6,1042.6-3128.6,2303.3-3965.9c605.4-402.3,1339.2-678.2,2050-770.2c274-34.5,730-57.5,756.8-36.4c11.5,7.6,44.1,115,74.7,235.7c201.2,833.4,615,1666.9,1172.5,2366.2c214.6,268.2,664.8,720.4,936.9,936.9C7987.9-680.1,8761.9-291.1,9612.6-72.7L9900,2l-3.8,283.6C9877,1950.5,8886.5,3575.2,7384.4,4408.6c-498.1,275.9-1186,507.7-1689.9,567.1c-57.5,5.7-126.4,15.3-153.3,21.1C5493.4,5006.4,5489.5,5000.7,5447.4,4818.7z"/><path d="M9593.4-718.4C8794.5-948.3,8005.1-1394.7,7417-1944.6c-540.3-505.8-892.8-977.1-1212.8-1617c-168.6-339.1-367.9-867.9-406.2-1078.7l-13.4-72.8l84.3,13.4c390.9,65.2,881.3,228,1291.3,429.2c954.1,469.4,1722.4,1222.4,2199.5,2161.2c159,310.4,262.5,572.9,346.8,871.7c70.9,251,134.1,540.3,122.6,569C9827.2-659,9719.9-682,9593.4-718.4z"/></g></g>
</svg>